<?xml version="1.0"?>
<svg xmlns="http://www.w3.org/2000/svg" xmlns:xlink="http://www.w3.org/1999/xlink" xmlns:svgjs="http://svgjs.com/svgjs" version="1.1" width="512" height="512" x="0" y="0" viewBox="0 0 510.057 510.057" style="enable-background:new 0 0 512 512" xml:space="preserve"><g><g xmlns="http://www.w3.org/2000/svg"><path d="m480.614 161.304c-5.379-7.91-16.233-10.029-24.19-4.723l-56.021 37.348c5.412-29.716-.02-59.52-15.673-84.861-2.176-3.524-6.799-4.614-10.322-2.439-3.524 2.177-4.616 6.798-2.439 10.322 13.137 21.267 18.035 46.175 14.203 71.201l-81.554-64.8c-27.467-21.824-61.573-33.05-96.502-31.887l14.543-9.25c21.377-13.597 45.417-19.266 69.528-16.397 22.234 2.646 43.779 12.624 60.667 28.095 3.054 2.798 7.798 2.59 10.597-.464 2.798-3.054 2.59-7.798-.464-10.597-19.185-17.576-43.699-28.915-69.027-31.929-27.582-3.282-55.023 3.162-79.352 18.635l-44.129 28.067c-23.677 7.115-45.309 20.118-62.836 38.067-2.894 2.963-2.837 7.712.126 10.606 2.964 2.893 7.711 2.837 10.606-.126 22.816-23.366 53.382-37.401 86.066-39.52 32.807-2.129 65.082 7.974 90.845 28.444l66.632 52.944h-2.711c-22.021 0-43.812 3.466-64.771 10.303-3.938 1.285-6.089 5.518-4.804 9.456 1.032 3.166 3.97 5.176 7.129 5.176.771 0 1.555-.12 2.327-.372 19.454-6.346 39.681-9.563 60.119-9.563h21.589l5.581 4.434c5.662 4.5 13.507 4.828 19.527.815l31.586-21.058c21.996 43.734 21.961 95.866-.081 139.589l-31.507-21.005c-6.017-4.01-13.863-3.683-19.525.816l-91.092 72.378c-26.887 21.364-60.531 31.357-94.713 28.142-34.19-3.216-65.373-19.308-87.805-45.31l-69.201-80.219c-.714-.828-1.6-1.489-2.596-1.938l-25.493-11.495 2.49-4.685c2.148-4.041 2.148-8.865 0-12.905l-2.49-4.686 25.493-11.495c.996-.449 1.882-1.11 2.596-1.938l2.185-2.533 15.787 12.677c26.24 21.072 58.121 31.661 90.045 31.661 9.329 0 18.66-.908 27.857-2.72l-.486 20.573c-.315 13.319 6.774 25.521 18.501 31.844 5.27 2.841 11.014 4.248 16.738 4.248 7.016 0 14.001-2.114 20.033-6.289l8.54-5.911c10.869-7.523 16.576-20.341 14.895-33.452s-10.439-24.073-22.854-28.609l-6.005-2.194c2.867-1.827 5.694-3.744 8.458-5.795l6.413-4.758c8.418-6.247 17.429-11.857 26.782-16.672 3.683-1.896 5.131-6.418 3.234-10.101s-6.417-5.129-10.102-3.235c-10.075 5.188-19.783 11.231-28.854 17.963l-6.413 4.758c-47.015 34.89-111.738 33.655-157.389-3.005l-15.375-12.347 41.35-47.933c2.706-3.136 2.356-7.872-.779-10.578-3.136-2.705-7.873-2.358-10.578.78l-52.255 60.574-25.203 11.366c-3.451 1.556-6.132 4.503-7.355 8.085-1.225 3.582-.908 7.554.869 10.897l2.806 5.279-2.807 5.28c-1.776 3.343-2.093 7.314-.868 10.896 1.224 3.582 3.904 6.529 7.355 8.085l25.202 11.363 68.117 78.962c13.88 16.09 30.773 28.766 49.576 37.472l35.676 28.518c18.509 14.795 40.468 22.338 62.689 22.338 16.208 0 32.558-4.015 47.803-12.158 34.941-18.664 55.069-54.197 53.239-93.429l45.316-36.006c.544-.433 1.296-.462 1.874-.078l58.763 39.176c3.893 2.594 8.558 3.517 13.147 2.601 4.586-.918 8.541-3.566 11.134-7.458l.87-1.304c18.841-28.269 28.717-61.167 28.559-95.139-.158-33.971-10.339-66.776-29.442-94.868zm-250.957 106.757c7.238 2.645 12.145 8.786 13.124 16.429.98 7.643-2.217 14.824-8.553 19.209l-8.54 5.911c-6.385 4.421-14.279 4.859-21.115 1.172-6.836-3.686-10.808-10.521-10.624-18.286l.586-24.782c5.663-1.771 11.241-3.893 16.7-6.384zm60.43 166.519c-30.771 16.435-66.811 13.114-94.06-8.667l-6.288-5.026c3.118.495 6.26.901 9.428 1.199 4.674.439 9.336.658 13.979.657 33.167 0 65.211-11.125 91.47-31.989l30.587-24.304c-2.363 28.774-18.801 54.074-45.116 68.13zm178.928-91.588-.87 1.305c-.501.752-1.214.992-1.595 1.068-.38.077-1.133.129-1.885-.373l-14.682-9.789c25.279-48.823 25.307-107.517.077-156.353l14.684-9.789c1.143-.76 2.696-.456 3.466.677 17.419 25.615 26.702 55.528 26.847 86.504.143 30.978-8.862 60.975-26.042 86.75z" fill="#ffffff" data-original="#000000" style=""/><path d="m87.36 212.852c0 11.874 9.66 21.534 21.534 21.534 11.873 0 21.533-9.66 21.533-21.534s-9.66-21.534-21.533-21.534c-11.874 0-21.534 9.66-21.534 21.534zm21.534-6.534c3.603 0 6.533 2.931 6.533 6.534s-2.931 6.534-6.533 6.534-6.534-2.931-6.534-6.534 2.932-6.534 6.534-6.534z" fill="#ffffff" data-original="#000000" style=""/><path d="m426.864 211.326c-4.143 0-7.5 3.358-7.5 7.5v3.276c0 4.142 3.357 7.5 7.5 7.5s7.5-3.358 7.5-7.5v-3.276c0-4.142-3.357-7.5-7.5-7.5z" fill="#ffffff" data-original="#000000" style=""/><path d="m419.364 292.702c0 4.142 3.357 7.5 7.5 7.5s7.5-3.358 7.5-7.5v-3.276c0-4.142-3.357-7.5-7.5-7.5s-7.5 3.358-7.5 7.5z" fill="#ffffff" data-original="#000000" style=""/><path d="m428.194 254.584v3.277c0 4.142 3.357 7.5 7.5 7.5s7.5-3.358 7.5-7.5v-3.277c0-4.142-3.357-7.5-7.5-7.5s-7.5 3.358-7.5 7.5z" fill="#ffffff" data-original="#000000" style=""/><path d="m275.259 82.139v3.335c0 4.142 3.357 7.5 7.5 7.5s7.5-3.358 7.5-7.5v-3.335c0-4.142-3.357-7.5-7.5-7.5s-7.5 3.358-7.5 7.5z" fill="#ffffff" data-original="#000000" style=""/><path d="m312.117 105.166v3.335c0 4.142 3.357 7.5 7.5 7.5s7.5-3.358 7.5-7.5v-3.335c0-4.142-3.357-7.5-7.5-7.5s-7.5 3.358-7.5 7.5z" fill="#ffffff" data-original="#000000" style=""/><path d="m350.854 122.095c-4.143 0-7.5 3.358-7.5 7.5v3.335c0 4.142 3.357 7.5 7.5 7.5s7.5-3.358 7.5-7.5v-3.335c0-4.142-3.357-7.5-7.5-7.5z" fill="#ffffff" data-original="#000000" style=""/><path d="m176.73 189.155c-.562 4.104 2.309 7.887 6.412 8.449.346.047.688.07 1.028.07 3.689 0 6.905-2.724 7.421-6.482l.656-4.788c2.804-20.471-4.901-40.705-20.612-54.125-3.149-2.691-7.884-2.317-10.574.832-2.689 3.149-2.317 7.883.832 10.574 11.809 10.087 17.601 25.296 15.493 40.683z" fill="#ffffff" data-original="#000000" style=""/><path d="m221.504 172.725c-.372 4.125 2.671 7.771 6.796 8.144.229.021.457.031.683.031 3.838 0 7.109-2.931 7.461-6.827l.293-3.25c1.261-13.998-2.324-27.986-9.59-37.418-2.526-3.28-7.236-3.893-10.519-1.364-3.281 2.528-3.893 7.237-1.364 10.519 4.947 6.421 7.45 16.736 6.533 26.917z" fill="#ffffff" data-original="#000000" style=""/><path d="m265.066 162.483c-.372 4.125 2.67 7.771 6.795 8.144.229.021.458.031.684.031 3.837 0 7.109-2.93 7.461-6.826l.21-2.326c.95-10.537-1.777-21.105-7.297-28.27-2.527-3.28-7.237-3.893-10.519-1.364-3.281 2.528-3.893 7.237-1.364 10.519 3.226 4.188 4.851 10.997 4.24 17.768z" fill="#ffffff" data-original="#000000" style=""/></g></g></svg>
