<?xml version="1.0" encoding="UTF-8"?> <svg xmlns="http://www.w3.org/2000/svg" xmlns:xlink="http://www.w3.org/1999/xlink" width="1400px" height="1400px" viewBox="0 0 1400 1400"><!-- Generator: Sketch 51.2 (57519) - http://www.bohemiancoding.com/sketch --><title>Stormglass - Circle 1400</title><desc>Created with Sketch.</desc><defs></defs><g id="Stormglass---Circle-1400" stroke="none" stroke-width="1" fill="none" fill-rule="evenodd"><g id="Group"><circle id="Oval" stroke="#979797" fill="#323B47" cx="700" cy="700" r="700"></circle><path d="M715.440526,819.228313 L794.75089,773.438453 C802.551114,768.934992 812.495323,771.55576 816.961903,779.292103 C821.428482,787.028446 818.72603,796.950768 810.925805,801.454229 L731.615442,847.244089 L810.925805,893.033949 C818.72603,897.53741 821.428482,907.459732 816.961903,915.196075 C812.495323,922.932418 802.551114,925.553186 794.75089,921.049725 L715.440526,875.259865 L715.440526,966.839585 C715.440526,975.846508 708.198769,983.148061 699.26561,983.148061 C690.332451,983.148061 683.090694,975.846508 683.090694,966.839585 L683.090694,875.259865 L603.780331,921.049725 C595.980107,925.553186 586.035897,922.932418 581.569318,915.196075 C577.102738,907.459732 579.805191,897.53741 587.605415,893.033949 L666.915778,847.244089 L587.605415,801.454229 C579.805191,796.950768 577.102738,787.028446 581.569318,779.292103 C586.035897,771.55576 595.980107,768.934992 603.780331,773.438453 L683.090694,819.228313 L683.090694,727.648593 C683.090694,718.64167 690.332451,711.340117 699.26561,711.340117 C708.198769,711.340117 715.440526,718.64167 715.440526,727.648593 L715.440526,819.228313 Z M700,1093.79373 C534.276884,1093.79373 420,1015.10189 420,844.750531 C420,788.511882 440.176421,739.981414 480.790704,682.876882 C489.586533,670.509762 499.038128,658.063707 512.125348,641.40453 C509.818609,644.340859 537.141242,609.752916 544.546665,600.182013 C620.251426,502.339804 653.26938,428.685 653.26938,321.728413 C653.26938,292.215665 677.213781,277.077566 701.037927,277.200746 C724.69248,277.323049 748.404688,292.396085 748.404688,321.728413 C748.404688,428.947576 781.029595,501.955522 856.303675,599.356074 C860.765739,605.129741 865.33654,610.969688 871.477916,618.762274 C873.262485,621.026652 875.28442,623.589002 879.088376,628.409231 C882.174616,632.321291 884.449936,635.210528 886.676999,638.047859 C899.025246,653.779819 907.890452,665.410926 916.226063,676.991511 C958.984907,736.395965 980,786.13508 980,844.750531 C980,1017.19959 867.469066,1093.79373 700,1093.79373 Z M700,1055.78132 C814.4014,1055.78132 941.568515,1015.83233 941.568515,844.750531 C941.568515,673.668732 709.973202,597.347457 709.973202,321.728413 C709.973202,313.135183 691.700865,312.946233 691.700865,321.728413 C691.700865,596.661764 458.431485,676.602814 458.431485,844.750531 C458.431485,1012.89825 585.5986,1055.78132 700,1055.78132 Z" id="Stormglass-logo" fill="#FFFFFF" fill-rule="nonzero"></path></g></g></svg> 